<mxfile host="65bd71144e">
    <diagram id="39s785ooTvyZZs3Ry_Ew" name="segementation">
        <mxGraphModel dx="1844" dy="886" grid="1" gridSize="10" guides="1" tooltips="1" connect="1" arrows="1" fold="1" page="1" pageScale="1" pageWidth="1169" pageHeight="827" math="0" shadow="0">
            <root>
                <mxCell id="0"/>
                <mxCell id="1" parent="0"/>
                <mxCell id="4" value="" style="edgeStyle=none;html=1;" edge="1" parent="1" source="2" target="3">
                    <mxGeometry relative="1" as="geometry"/>
                </mxCell>
                <mxCell id="2" value="Eligible list" style="rounded=0;whiteSpace=wrap;html=1;" vertex="1" parent="1">
                    <mxGeometry x="60" y="170" width="120" height="60" as="geometry"/>
                </mxCell>
                <mxCell id="10" value="" style="edgeStyle=none;html=1;" edge="1" parent="1" source="3" target="9">
                    <mxGeometry relative="1" as="geometry"/>
                </mxCell>
                <mxCell id="18" value="" style="edgeStyle=none;html=1;" edge="1" parent="1" source="3" target="17">
                    <mxGeometry relative="1" as="geometry"/>
                </mxCell>
                <mxCell id="3" value="Segmentation" style="rounded=0;whiteSpace=wrap;html=1;" vertex="1" parent="1">
                    <mxGeometry x="260" y="170" width="120" height="60" as="geometry"/>
                </mxCell>
                <mxCell id="8" value="" style="edgeStyle=none;html=1;" edge="1" parent="1" source="5" target="7">
                    <mxGeometry relative="1" as="geometry"/>
                </mxCell>
                <mxCell id="5" value="wechat push info" style="rounded=0;whiteSpace=wrap;html=1;" vertex="1" parent="1">
                    <mxGeometry x="610" y="170" width="120" height="60" as="geometry"/>
                </mxCell>
                <mxCell id="7" value="iccm_online_sms" style="whiteSpace=wrap;html=1;rounded=0;" vertex="1" parent="1">
                    <mxGeometry x="810" y="170" width="120" height="60" as="geometry"/>
                </mxCell>
                <mxCell id="11" style="edgeStyle=none;html=1;" edge="1" parent="1" source="9" target="5">
                    <mxGeometry relative="1" as="geometry"/>
                </mxCell>
                <mxCell id="9" value="supress?" style="rhombus;whiteSpace=wrap;html=1;rounded=0;" vertex="1" parent="1">
                    <mxGeometry x="430" y="160" width="110" height="80" as="geometry"/>
                </mxCell>
                <mxCell id="14" style="edgeStyle=none;html=1;entryX=0.5;entryY=1;entryDx=0;entryDy=0;" edge="1" parent="1" source="13" target="2">
                    <mxGeometry relative="1" as="geometry"/>
                </mxCell>
                <mxCell id="13" value="BJ PWP&lt;br&gt;crm.Category != 'E'&lt;br&gt;crm.Authorized == F" style="shape=internalStorage;whiteSpace=wrap;html=1;backgroundOutline=1;" vertex="1" parent="1">
                    <mxGeometry x="55" y="320" width="130" height="110" as="geometry"/>
                </mxCell>
                <mxCell id="16" style="edgeStyle=none;html=1;" edge="1" parent="1" source="15">
                    <mxGeometry relative="1" as="geometry">
                        <mxPoint x="485" y="160" as="targetPoint"/>
                    </mxGeometry>
                </mxCell>
                <mxCell id="15" value="In sent history?" style="shape=internalStorage;whiteSpace=wrap;html=1;backgroundOutline=1;" vertex="1" parent="1">
                    <mxGeometry x="423.75" y="30" width="116.25" height="80" as="geometry"/>
                </mxCell>
                <mxCell id="21" value="" style="edgeStyle=none;html=1;" edge="1" parent="1" source="17" target="20">
                    <mxGeometry relative="1" as="geometry"/>
                </mxCell>
                <mxCell id="23" value="" style="edgeStyle=orthogonalEdgeStyle;html=1;entryX=0;entryY=0.5;entryDx=0;entryDy=0;strokeColor=default;rounded=0;exitX=0.5;exitY=1;exitDx=0;exitDy=0;" edge="1" parent="1" source="17" target="22">
                    <mxGeometry relative="1" as="geometry"/>
                </mxCell>
                <mxCell id="44" value="N" style="edgeLabel;html=1;align=center;verticalAlign=middle;resizable=0;points=[];" vertex="1" connectable="0" parent="23">
                    <mxGeometry x="-0.3882" y="-3" relative="1" as="geometry">
                        <mxPoint as="offset"/>
                    </mxGeometry>
                </mxCell>
                <mxCell id="17" value="NRC" style="rhombus;whiteSpace=wrap;html=1;rounded=0;" vertex="1" parent="1">
                    <mxGeometry x="275" y="310" width="90" height="80" as="geometry"/>
                </mxCell>
                <mxCell id="27" value="" style="edgeStyle=orthogonalEdgeStyle;rounded=0;html=1;strokeColor=default;" edge="1" parent="1" source="20" target="26">
                    <mxGeometry relative="1" as="geometry"/>
                </mxCell>
                <mxCell id="45" value="Y" style="edgeLabel;html=1;align=center;verticalAlign=middle;resizable=0;points=[];" vertex="1" connectable="0" parent="27">
                    <mxGeometry x="0.1658" y="-1" relative="1" as="geometry">
                        <mxPoint as="offset"/>
                    </mxGeometry>
                </mxCell>
                <mxCell id="29" value="" style="edgeStyle=orthogonalEdgeStyle;rounded=0;html=1;strokeColor=default;exitX=0.5;exitY=1;exitDx=0;exitDy=0;entryX=0;entryY=0.5;entryDx=0;entryDy=0;" edge="1" parent="1" source="20" target="28">
                    <mxGeometry relative="1" as="geometry"/>
                </mxCell>
                <mxCell id="46" value="N" style="edgeLabel;html=1;align=center;verticalAlign=middle;resizable=0;points=[];" vertex="1" connectable="0" parent="29">
                    <mxGeometry x="0.3318" y="3" relative="1" as="geometry">
                        <mxPoint as="offset"/>
                    </mxGeometry>
                </mxCell>
                <mxCell id="20" value="Meeting/&lt;br&gt;FNA/&lt;br&gt;Policy" style="rhombus;whiteSpace=wrap;html=1;rounded=0;" vertex="1" parent="1">
                    <mxGeometry x="421.88" y="305" width="120" height="90" as="geometry"/>
                </mxCell>
                <mxCell id="25" value="" style="edgeStyle=orthogonalEdgeStyle;rounded=0;html=1;strokeColor=default;" edge="1" parent="1" source="22" target="24">
                    <mxGeometry relative="1" as="geometry">
                        <Array as="points">
                            <mxPoint x="580" y="520"/>
                            <mxPoint x="580" y="520"/>
                        </Array>
                    </mxGeometry>
                </mxCell>
                <mxCell id="37" style="edgeStyle=orthogonalEdgeStyle;rounded=0;html=1;exitX=0.5;exitY=1;exitDx=0;exitDy=0;entryX=0;entryY=0.5;entryDx=0;entryDy=0;strokeColor=default;" edge="1" parent="1" source="22" target="35">
                    <mxGeometry relative="1" as="geometry"/>
                </mxCell>
                <mxCell id="47" value="N" style="edgeLabel;html=1;align=center;verticalAlign=middle;resizable=0;points=[];" vertex="1" connectable="0" parent="37">
                    <mxGeometry x="-0.4629" relative="1" as="geometry">
                        <mxPoint as="offset"/>
                    </mxGeometry>
                </mxCell>
                <mxCell id="22" value="Worksite/&lt;br&gt;Digital" style="rhombus;whiteSpace=wrap;html=1;rounded=0;" vertex="1" parent="1">
                    <mxGeometry x="445" y="480" width="105" height="80" as="geometry"/>
                </mxCell>
                <mxCell id="31" value="" style="edgeStyle=orthogonalEdgeStyle;rounded=0;html=1;strokeColor=default;" edge="1" parent="1" source="24" target="30">
                    <mxGeometry relative="1" as="geometry"/>
                </mxCell>
                <mxCell id="50" value="Y" style="edgeLabel;html=1;align=center;verticalAlign=middle;resizable=0;points=[];" vertex="1" connectable="0" parent="31">
                    <mxGeometry x="0.1498" y="3" relative="1" as="geometry">
                        <mxPoint y="-6" as="offset"/>
                    </mxGeometry>
                </mxCell>
                <mxCell id="42" style="edgeStyle=orthogonalEdgeStyle;rounded=0;html=1;entryX=0.5;entryY=0;entryDx=0;entryDy=0;strokeColor=default;" edge="1" parent="1" source="24" target="40">
                    <mxGeometry relative="1" as="geometry"/>
                </mxCell>
                <mxCell id="48" value="N" style="edgeLabel;html=1;align=center;verticalAlign=middle;resizable=0;points=[];" vertex="1" connectable="0" parent="42">
                    <mxGeometry x="0.2374" y="-3" relative="1" as="geometry">
                        <mxPoint x="1" as="offset"/>
                    </mxGeometry>
                </mxCell>
                <mxCell id="24" value="Proactive&lt;br&gt;flag?" style="rhombus;whiteSpace=wrap;html=1;rounded=0;" vertex="1" parent="1">
                    <mxGeometry x="620" y="480" width="102.5" height="80" as="geometry"/>
                </mxCell>
                <mxCell id="26" value="SMS3" style="whiteSpace=wrap;html=1;rounded=0;" vertex="1" parent="1">
                    <mxGeometry x="820" y="320" width="120" height="60" as="geometry"/>
                </mxCell>
                <mxCell id="28" value="SMS4" style="whiteSpace=wrap;html=1;rounded=0;" vertex="1" parent="1">
                    <mxGeometry x="820" y="431" width="120" height="60" as="geometry"/>
                </mxCell>
                <mxCell id="30" value="SMS1" style="whiteSpace=wrap;html=1;rounded=0;" vertex="1" parent="1">
                    <mxGeometry x="820" y="540" width="120" height="60" as="geometry"/>
                </mxCell>
                <mxCell id="38" style="edgeStyle=orthogonalEdgeStyle;rounded=0;html=1;exitX=1;exitY=0.5;exitDx=0;exitDy=0;entryX=0;entryY=0.5;entryDx=0;entryDy=0;strokeColor=default;" edge="1" parent="1" source="35" target="30">
                    <mxGeometry relative="1" as="geometry">
                        <Array as="points">
                            <mxPoint x="770" y="630"/>
                            <mxPoint x="770" y="570"/>
                        </Array>
                    </mxGeometry>
                </mxCell>
                <mxCell id="51" value="Y" style="edgeLabel;html=1;align=center;verticalAlign=middle;resizable=0;points=[];" vertex="1" connectable="0" parent="38">
                    <mxGeometry x="0.0539" y="2" relative="1" as="geometry">
                        <mxPoint as="offset"/>
                    </mxGeometry>
                </mxCell>
                <mxCell id="41" value="" style="edgeStyle=orthogonalEdgeStyle;rounded=0;html=1;strokeColor=default;" edge="1" parent="1" source="35" target="40">
                    <mxGeometry relative="1" as="geometry"/>
                </mxCell>
                <mxCell id="49" value="N" style="edgeLabel;html=1;align=center;verticalAlign=middle;resizable=0;points=[];" vertex="1" connectable="0" parent="41">
                    <mxGeometry x="0.4155" y="-1" relative="1" as="geometry">
                        <mxPoint as="offset"/>
                    </mxGeometry>
                </mxCell>
                <mxCell id="35" value="Selfcreate/&lt;br&gt;EBS/&lt;br&gt;Others" style="rhombus;whiteSpace=wrap;html=1;" vertex="1" parent="1">
                    <mxGeometry x="606.25" y="590" width="130" height="80" as="geometry"/>
                </mxCell>
                <mxCell id="40" value="" style="ellipse;whiteSpace=wrap;html=1;" vertex="1" parent="1">
                    <mxGeometry x="1010" y="600" width="120" height="60" as="geometry"/>
                </mxCell>
                <mxCell id="43" value="Y" style="text;html=1;align=center;verticalAlign=middle;resizable=0;points=[];autosize=1;strokeColor=none;fillColor=none;" vertex="1" parent="1">
                    <mxGeometry x="380" y="340" width="20" height="20" as="geometry"/>
                </mxCell>
                <mxCell id="52" value="N" style="text;html=1;align=center;verticalAlign=middle;resizable=0;points=[];autosize=1;strokeColor=none;fillColor=none;" vertex="1" parent="1">
                    <mxGeometry x="550" y="180" width="20" height="20" as="geometry"/>
                </mxCell>
            </root>
        </mxGraphModel>
    </diagram>
    <diagram id="JjYNRo8vqWCfDTPSL6aL" name="daily_sms">
        <mxGraphModel dx="3013" dy="886" grid="1" gridSize="10" guides="1" tooltips="1" connect="1" arrows="1" fold="1" page="1" pageScale="1" pageWidth="1169" pageHeight="827" math="0" shadow="0">
            <root>
                <mxCell id="J4KaKzc3ZQSgoG_Fg-lY-0"/>
                <mxCell id="J4KaKzc3ZQSgoG_Fg-lY-1" parent="J4KaKzc3ZQSgoG_Fg-lY-0"/>
                <mxCell id="J4KaKzc3ZQSgoG_Fg-lY-4" value="Daily SMS schedule" style="swimlane;childLayout=stackLayout;resizeParent=1;resizeParentMax=0;horizontal=1;startSize=20;horizontalStack=0;" vertex="1" parent="J4KaKzc3ZQSgoG_Fg-lY-1">
                    <mxGeometry x="-1150" y="20" width="1040" height="520" as="geometry"/>
                </mxCell>
                <mxCell id="J4KaKzc3ZQSgoG_Fg-lY-5" value="7 a.m." style="swimlane;startSize=20;horizontal=0;" vertex="1" parent="J4KaKzc3ZQSgoG_Fg-lY-4">
                    <mxGeometry y="20" width="1040" height="160" as="geometry"/>
                </mxCell>
                <mxCell id="J4KaKzc3ZQSgoG_Fg-lY-16" value="" style="edgeStyle=orthogonalEdgeStyle;rounded=0;html=1;strokeColor=default;" edge="1" parent="J4KaKzc3ZQSgoG_Fg-lY-5" source="J4KaKzc3ZQSgoG_Fg-lY-9" target="J4KaKzc3ZQSgoG_Fg-lY-15">
                    <mxGeometry relative="1" as="geometry"/>
                </mxCell>
                <mxCell id="J4KaKzc3ZQSgoG_Fg-lY-9" value="Extract eligible list" style="rounded=0;whiteSpace=wrap;html=1;" vertex="1" parent="J4KaKzc3ZQSgoG_Fg-lY-5">
                    <mxGeometry x="320" y="42" width="120" height="60" as="geometry"/>
                </mxCell>
                <mxCell id="J4KaKzc3ZQSgoG_Fg-lY-11" style="edgeStyle=orthogonalEdgeStyle;rounded=0;html=1;strokeColor=default;" edge="1" parent="J4KaKzc3ZQSgoG_Fg-lY-5" source="J4KaKzc3ZQSgoG_Fg-lY-10" target="J4KaKzc3ZQSgoG_Fg-lY-9">
                    <mxGeometry relative="1" as="geometry"/>
                </mxCell>
                <mxCell id="J4KaKzc3ZQSgoG_Fg-lY-18" style="edgeStyle=orthogonalEdgeStyle;rounded=0;html=1;exitX=0.5;exitY=1;exitDx=0;exitDy=0;entryX=0.5;entryY=1;entryDx=0;entryDy=0;strokeColor=default;" edge="1" parent="J4KaKzc3ZQSgoG_Fg-lY-5" source="J4KaKzc3ZQSgoG_Fg-lY-10" target="J4KaKzc3ZQSgoG_Fg-lY-13">
                    <mxGeometry relative="1" as="geometry"/>
                </mxCell>
                <mxCell id="J4KaKzc3ZQSgoG_Fg-lY-10" value="IDP table ready?" style="rhombus;whiteSpace=wrap;html=1;" vertex="1" parent="J4KaKzc3ZQSgoG_Fg-lY-5">
                    <mxGeometry x="170" y="42" width="130" height="60" as="geometry"/>
                </mxCell>
                <mxCell id="J4KaKzc3ZQSgoG_Fg-lY-14" style="edgeStyle=orthogonalEdgeStyle;rounded=0;html=1;entryX=0;entryY=0.5;entryDx=0;entryDy=0;strokeColor=default;" edge="1" parent="J4KaKzc3ZQSgoG_Fg-lY-5" source="J4KaKzc3ZQSgoG_Fg-lY-13" target="J4KaKzc3ZQSgoG_Fg-lY-10">
                    <mxGeometry relative="1" as="geometry"/>
                </mxCell>
                <mxCell id="J4KaKzc3ZQSgoG_Fg-lY-13" value="" style="ellipse;whiteSpace=wrap;html=1;aspect=fixed;" vertex="1" parent="J4KaKzc3ZQSgoG_Fg-lY-5">
                    <mxGeometry x="45" y="47" width="50" height="50" as="geometry"/>
                </mxCell>
                <mxCell id="J4KaKzc3ZQSgoG_Fg-lY-21" style="edgeStyle=orthogonalEdgeStyle;rounded=0;html=1;exitX=1;exitY=0.5;exitDx=0;exitDy=0;entryX=0;entryY=0.5;entryDx=0;entryDy=0;strokeColor=default;" edge="1" parent="J4KaKzc3ZQSgoG_Fg-lY-5" source="J4KaKzc3ZQSgoG_Fg-lY-15" target="J4KaKzc3ZQSgoG_Fg-lY-20">
                    <mxGeometry relative="1" as="geometry"/>
                </mxCell>
                <mxCell id="J4KaKzc3ZQSgoG_Fg-lY-15" value="wechat_push_info" style="shape=process;whiteSpace=wrap;html=1;rounded=0;" vertex="1" parent="J4KaKzc3ZQSgoG_Fg-lY-5">
                    <mxGeometry x="490" y="42" width="150" height="60" as="geometry"/>
                </mxCell>
                <mxCell id="J4KaKzc3ZQSgoG_Fg-lY-20" value="PA5. eligible list" style="shape=datastore;whiteSpace=wrap;html=1;" vertex="1" parent="J4KaKzc3ZQSgoG_Fg-lY-5">
                    <mxGeometry x="710" y="42" width="130" height="60" as="geometry"/>
                </mxCell>
                <mxCell id="J4KaKzc3ZQSgoG_Fg-lY-6" value="8 a.m." style="swimlane;startSize=20;horizontal=0;" vertex="1" parent="J4KaKzc3ZQSgoG_Fg-lY-4">
                    <mxGeometry y="180" width="1040" height="200" as="geometry"/>
                </mxCell>
                <mxCell id="J4KaKzc3ZQSgoG_Fg-lY-24" style="edgeStyle=orthogonalEdgeStyle;rounded=0;html=1;exitX=1;exitY=0.5;exitDx=0;exitDy=0;entryX=0;entryY=0.5;entryDx=0;entryDy=0;strokeColor=default;" edge="1" parent="J4KaKzc3ZQSgoG_Fg-lY-6" source="J4KaKzc3ZQSgoG_Fg-lY-17" target="J4KaKzc3ZQSgoG_Fg-lY-19">
                    <mxGeometry relative="1" as="geometry"/>
                </mxCell>
                <mxCell id="J4KaKzc3ZQSgoG_Fg-lY-27" style="edgeStyle=orthogonalEdgeStyle;rounded=0;html=1;entryX=0.5;entryY=1;entryDx=0;entryDy=0;strokeColor=default;exitX=0.5;exitY=1;exitDx=0;exitDy=0;" edge="1" parent="J4KaKzc3ZQSgoG_Fg-lY-6" source="J4KaKzc3ZQSgoG_Fg-lY-17" target="J4KaKzc3ZQSgoG_Fg-lY-22">
                    <mxGeometry relative="1" as="geometry">
                        <Array as="points">
                            <mxPoint x="230" y="170"/>
                            <mxPoint x="75" y="170"/>
                        </Array>
                    </mxGeometry>
                </mxCell>
                <mxCell id="J4KaKzc3ZQSgoG_Fg-lY-17" value="wechat_push_info.rdy&lt;br&gt;in backup?" style="rhombus;whiteSpace=wrap;html=1;" vertex="1" parent="J4KaKzc3ZQSgoG_Fg-lY-6">
                    <mxGeometry x="150" y="42.5" width="160" height="85" as="geometry"/>
                </mxCell>
                <mxCell id="J4KaKzc3ZQSgoG_Fg-lY-26" value="" style="edgeStyle=orthogonalEdgeStyle;rounded=0;html=1;strokeColor=default;" edge="1" parent="J4KaKzc3ZQSgoG_Fg-lY-6" source="J4KaKzc3ZQSgoG_Fg-lY-19" target="J4KaKzc3ZQSgoG_Fg-lY-25">
                    <mxGeometry relative="1" as="geometry"/>
                </mxCell>
                <mxCell id="J4KaKzc3ZQSgoG_Fg-lY-19" value="read PA1.wechat_push_info" style="rounded=0;whiteSpace=wrap;html=1;" vertex="1" parent="J4KaKzc3ZQSgoG_Fg-lY-6">
                    <mxGeometry x="370" y="50" width="140" height="70" as="geometry"/>
                </mxCell>
                <mxCell id="J4KaKzc3ZQSgoG_Fg-lY-23" style="edgeStyle=orthogonalEdgeStyle;rounded=0;html=1;exitX=1;exitY=0.5;exitDx=0;exitDy=0;entryX=0;entryY=0.5;entryDx=0;entryDy=0;strokeColor=default;" edge="1" parent="J4KaKzc3ZQSgoG_Fg-lY-6" source="J4KaKzc3ZQSgoG_Fg-lY-22" target="J4KaKzc3ZQSgoG_Fg-lY-17">
                    <mxGeometry relative="1" as="geometry"/>
                </mxCell>
                <mxCell id="J4KaKzc3ZQSgoG_Fg-lY-22" value="" style="ellipse;whiteSpace=wrap;html=1;aspect=fixed;" vertex="1" parent="J4KaKzc3ZQSgoG_Fg-lY-6">
                    <mxGeometry x="50" y="60" width="50" height="50" as="geometry"/>
                </mxCell>
                <mxCell id="J4KaKzc3ZQSgoG_Fg-lY-28" style="edgeStyle=orthogonalEdgeStyle;rounded=0;html=1;exitX=0.5;exitY=1;exitDx=0;exitDy=0;entryX=0;entryY=0.5;entryDx=0;entryDy=0;strokeColor=default;" edge="1" parent="J4KaKzc3ZQSgoG_Fg-lY-6" source="J4KaKzc3ZQSgoG_Fg-lY-25" target="J4KaKzc3ZQSgoG_Fg-lY-19">
                    <mxGeometry relative="1" as="geometry">
                        <Array as="points">
                            <mxPoint x="635" y="170"/>
                            <mxPoint x="340" y="170"/>
                            <mxPoint x="340" y="85"/>
                        </Array>
                    </mxGeometry>
                </mxCell>
                <mxCell id="J4KaKzc3ZQSgoG_Fg-lY-30" style="edgeStyle=orthogonalEdgeStyle;rounded=0;html=1;exitX=1;exitY=0.5;exitDx=0;exitDy=0;entryX=0;entryY=0.5;entryDx=0;entryDy=0;strokeColor=default;" edge="1" parent="J4KaKzc3ZQSgoG_Fg-lY-6" source="J4KaKzc3ZQSgoG_Fg-lY-25" target="J4KaKzc3ZQSgoG_Fg-lY-29">
                    <mxGeometry relative="1" as="geometry"/>
                </mxCell>
                <mxCell id="J4KaKzc3ZQSgoG_Fg-lY-25" value="daily data exist?" style="rhombus;whiteSpace=wrap;html=1;rounded=0;" vertex="1" parent="J4KaKzc3ZQSgoG_Fg-lY-6">
                    <mxGeometry x="580" y="45" width="110" height="80" as="geometry"/>
                </mxCell>
                <mxCell id="J4KaKzc3ZQSgoG_Fg-lY-34" value="" style="edgeStyle=orthogonalEdgeStyle;rounded=0;html=1;strokeColor=default;" edge="1" parent="J4KaKzc3ZQSgoG_Fg-lY-6" source="J4KaKzc3ZQSgoG_Fg-lY-29" target="J4KaKzc3ZQSgoG_Fg-lY-33">
                    <mxGeometry relative="1" as="geometry"/>
                </mxCell>
                <mxCell id="J4KaKzc3ZQSgoG_Fg-lY-29" value="merge data" style="shape=ext;double=1;rounded=0;whiteSpace=wrap;html=1;" vertex="1" parent="J4KaKzc3ZQSgoG_Fg-lY-6">
                    <mxGeometry x="720" y="45" width="110" height="80" as="geometry"/>
                </mxCell>
                <mxCell id="J4KaKzc3ZQSgoG_Fg-lY-33" value="iccm_online_sms" style="shape=process;whiteSpace=wrap;html=1;backgroundOutline=1;rounded=0;" vertex="1" parent="J4KaKzc3ZQSgoG_Fg-lY-6">
                    <mxGeometry x="880" y="55" width="145" height="60" as="geometry"/>
                </mxCell>
                <mxCell id="J4KaKzc3ZQSgoG_Fg-lY-7" value="15:00 p.m." style="swimlane;startSize=20;horizontal=0;" vertex="1" parent="J4KaKzc3ZQSgoG_Fg-lY-4">
                    <mxGeometry y="380" width="1040" height="140" as="geometry"/>
                </mxCell>
                <mxCell id="J4KaKzc3ZQSgoG_Fg-lY-37" value="" style="ellipse;whiteSpace=wrap;html=1;aspect=fixed;" vertex="1" parent="J4KaKzc3ZQSgoG_Fg-lY-7">
                    <mxGeometry x="50" y="45" width="50" height="50" as="geometry"/>
                </mxCell>
                <mxCell id="J4KaKzc3ZQSgoG_Fg-lY-40" value="qs_sms_push_his" style="shape=datastore;whiteSpace=wrap;html=1;" vertex="1" parent="J4KaKzc3ZQSgoG_Fg-lY-7">
                    <mxGeometry x="370" y="40" width="140" height="60" as="geometry"/>
                </mxCell>
                <mxCell id="J4KaKzc3ZQSgoG_Fg-lY-35" style="edgeStyle=orthogonalEdgeStyle;rounded=0;html=1;exitX=0.5;exitY=1;exitDx=0;exitDy=0;entryX=0.5;entryY=0;entryDx=0;entryDy=0;strokeColor=default;" edge="1" parent="J4KaKzc3ZQSgoG_Fg-lY-4" source="J4KaKzc3ZQSgoG_Fg-lY-20" target="J4KaKzc3ZQSgoG_Fg-lY-29">
                    <mxGeometry relative="1" as="geometry"/>
                </mxCell>
                <mxCell id="J4KaKzc3ZQSgoG_Fg-lY-41" style="edgeStyle=orthogonalEdgeStyle;rounded=0;html=1;entryX=0;entryY=0.5;entryDx=0;entryDy=0;strokeColor=default;" edge="1" parent="J4KaKzc3ZQSgoG_Fg-lY-1" source="J4KaKzc3ZQSgoG_Fg-lY-38" target="J4KaKzc3ZQSgoG_Fg-lY-40">
                    <mxGeometry relative="1" as="geometry"/>
                </mxCell>
                <mxCell id="J4KaKzc3ZQSgoG_Fg-lY-38" value="PA1.iccm_online_sms&lt;br&gt;PA5. eligible list" style="whiteSpace=wrap;html=1;" vertex="1" parent="J4KaKzc3ZQSgoG_Fg-lY-1">
                    <mxGeometry x="-1005" y="440" width="135" height="60" as="geometry"/>
                </mxCell>
                <mxCell id="J4KaKzc3ZQSgoG_Fg-lY-39" value="" style="edgeStyle=orthogonalEdgeStyle;rounded=0;html=1;strokeColor=default;" edge="1" parent="J4KaKzc3ZQSgoG_Fg-lY-1" source="J4KaKzc3ZQSgoG_Fg-lY-37" target="J4KaKzc3ZQSgoG_Fg-lY-38">
                    <mxGeometry relative="1" as="geometry"/>
                </mxCell>
            </root>
        </mxGraphModel>
    </diagram>
</mxfile>